<?xml version="1.0" encoding="utf-8"?>
<!-- Generator: Adobe Illustrator 22.1.0, SVG Export Plug-In . SVG Version: 6.00 Build 0)  -->
<svg version="1.1" id="Layer_1" xmlns="http://www.w3.org/2000/svg" xmlns:xlink="http://www.w3.org/1999/xlink" x="0px" y="0px"
	 viewBox="0 0 56.9 61.3" style="enable-background:new 0 0 56.9 61.3;" xml:space="preserve">
<style type="text/css">
	.st0{clip-path:url(#SVGID_2_);}
	.st1{clip-path:url(#SVGID_4_);}
</style>
<g>
	<g>
		<defs>
			<rect id="SVGID_1_" x="0.2" y="0.2" width="56.7" height="61.2"/>
		</defs>
		<clipPath id="SVGID_2_">
			<use xlink:href="#SVGID_1_"  style="overflow:visible;"/>
		</clipPath>
		<path class="st0" d="M16.1,40.1h33.6c3.8,0,6.9-3.1,6.9-6.9V18.9c0,0,0-0.1,0-0.1c0,0,0-0.1,0-0.1s0,0,0-0.1c0,0,0,0,0-0.1
			c0,0,0,0,0-0.1c0,0,0,0,0-0.1c0,0,0-0.1,0-0.1c0,0,0-0.1,0-0.1l0-0.1c0,0,0,0,0-0.1c0,0,0-0.1-0.1-0.1c0,0,0,0,0-0.1
			c0,0,0,0,0-0.1c0,0,0,0-0.1-0.1c0,0,0,0,0-0.1l-0.1-0.1c0,0,0,0-0.1-0.1c0,0-0.1,0-0.1,0c0,0,0,0-0.1,0c0,0,0,0-0.1,0l-0.1,0
			l-0.1,0l-0.1,0c0,0-0.1,0-0.1,0c0,0-0.1,0-0.1,0c0,0,0,0-0.1,0c0,0-0.1,0-0.1,0c0,0,0,0-0.1,0l-42.6-5.9V5.6c0-0.1,0-0.1,0-0.2
			c0,0,0,0,0-0.1c0,0,0-0.1,0-0.1c0,0,0-0.1,0-0.1c0,0,0,0,0-0.1l0-0.1c0,0,0,0,0-0.1c0,0,0-0.1-0.1-0.1c0,0,0,0,0,0
			c0,0,0-0.1,0-0.1c0,0,0,0,0-0.1c0,0,0,0,0-0.1c0,0,0,0,0-0.1l0,0l-0.1-0.1l0,0c0,0,0,0-0.1-0.1c0,0,0,0,0,0c0,0,0,0-0.1-0.1
			c0,0-0.1,0-0.1-0.1c0,0,0,0,0,0c-0.1,0-0.1-0.1-0.2-0.1L2.4,0.1C1.5-0.2,0.5,0.2,0.1,1c-0.4,0.9,0,1.9,0.9,2.2l8.2,3.5v37.1
			c0,3.5,2.6,6.4,6,6.9c-0.6,1-1,2.2-1,3.5c0,3.8,3.1,6.8,6.8,6.8c3.8,0,6.8-3.1,6.8-6.8c0-1.3-0.3-2.4-0.9-3.4h15.2
			c-0.6,1-0.9,2.2-0.9,3.4c0,3.8,3.1,6.8,6.8,6.8c3.8,0,6.8-3.1,6.8-6.8c0-3.8-3.1-6.8-6.8-6.8h-32c-2,0-3.5-1.6-3.5-3.5v-4.6
			C13.6,39.8,14.9,40.1,16.1,40.1L16.1,40.1z M49.7,36.8"/>
	</g>
</g>
</svg>
