<svg xmlns="http://www.w3.org/2000/svg" width="30" height="30" viewBox="0 0 30 30">
  <metadata><?xpacket begin="﻿" id="W5M0MpCehiHzreSzNTczkc9d"?>
<x:xmpmeta xmlns:x="adobe:ns:meta/" x:xmptk="Adobe XMP Core 5.6-c142 79.160924, 2017/07/13-01:06:39        ">
   <rdf:RDF xmlns:rdf="http://www.w3.org/1999/02/22-rdf-syntax-ns#">
      <rdf:Description rdf:about=""/>
   </rdf:RDF>
</x:xmpmeta>
                                                                                                    
                                                                                                    
                                                                                                    
                                                                                                    
                                                                                                    
                                                                                                    
                                                                                                    
                                                                                                    
                                                                                                    
                                                                                                    
                                                                                                    
                                                                                                    
                                                                                                    
                                                                                                    
                                                                                                    
                                                                                                    
                                                                                                    
                                                                                                    
                                                                                                    
                                                                                                    
                           
<?xpacket end="w"?></metadata>
<defs>
    <style>
      .cls-1 {
        fill: #fff;
        fill-rule: evenodd;
      }
    </style>
  </defs>
  <path id="F" class="cls-1" d="M965.708,5604.02h0v3.45h-1.825a1.249,1.249,0,0,0-.912,1.42V5612h3.635l-0.9,2.97h-2.737v9.48h-3.65v-9.48h-2.738V5612h2.738v-4.33a3.647,3.647,0,0,1,3.65-3.65h2.737ZM953.7,5597h12.6a8.706,8.706,0,0,1,8.7,8.7v12.6a8.7,8.7,0,0,1-8.7,8.7H953.7a8.706,8.706,0,0,1-8.7-8.7v-12.6a8.7,8.7,0,0,1,8.7-8.7m-0.3,3a5.4,5.4,0,0,0-5.4,5.4h0v13.2a5.4,5.4,0,0,0,5.4,5.4h13.2a5.4,5.4,0,0,0,5.4-5.4h0v-13.2a5.393,5.393,0,0,0-5.4-5.4H953.4" transform="translate(-945 -5597)"/>
</svg>
