<svg xmlns="http://www.w3.org/2000/svg" width="30" height="30" viewBox="0 0 30 30">
  <metadata><?xpacket begin="﻿" id="W5M0MpCehiHzreSzNTczkc9d"?>
<x:xmpmeta xmlns:x="adobe:ns:meta/" x:xmptk="Adobe XMP Core 5.6-c142 79.160924, 2017/07/13-01:06:39        ">
   <rdf:RDF xmlns:rdf="http://www.w3.org/1999/02/22-rdf-syntax-ns#">
      <rdf:Description rdf:about=""/>
   </rdf:RDF>
</x:xmpmeta>
                                                                                                    
                                                                                                    
                                                                                                    
                                                                                                    
                                                                                                    
                                                                                                    
                                                                                                    
                                                                                                    
                                                                                                    
                                                                                                    
                                                                                                    
                                                                                                    
                                                                                                    
                                                                                                    
                                                                                                    
                                                                                                    
                                                                                                    
                                                                                                    
                                                                                                    
                                                                                                    
                           
<?xpacket end="w"?></metadata>
<defs>
    <style>
      .cls-1 {
        fill: #fff;
        fill-rule: evenodd;
      }
    </style>
  </defs>
  <path id="Inst" class="cls-1" d="M889.7,5597h12.6a8.706,8.706,0,0,1,8.7,8.7v12.6a8.7,8.7,0,0,1-8.7,8.7H889.7a8.706,8.706,0,0,1-8.7-8.7v-12.6a8.7,8.7,0,0,1,8.7-8.7m-0.3,3a5.4,5.4,0,0,0-5.4,5.4h0v13.2a5.4,5.4,0,0,0,5.4,5.4h13.2a5.4,5.4,0,0,0,5.4-5.4h0v-13.2a5.393,5.393,0,0,0-5.4-5.4H889.4m14.475,2.25a1.875,1.875,0,1,1-1.875,1.87,1.874,1.874,0,0,1,1.875-1.87M896,5604.5a7.5,7.5,0,1,1-7.5,7.5,7.5,7.5,0,0,1,7.5-7.5m0,3a4.5,4.5,0,1,0,4.5,4.5A4.5,4.5,0,0,0,896,5607.5Z" transform="translate(-881 -5597)"/>
</svg>
