<?xml version="1.0" encoding="utf-8"?>
<!-- Generator: Adobe Illustrator 22.1.0, SVG Export Plug-In . SVG Version: 6.00 Build 0)  -->
<svg version="1.1" id="Layer_1" xmlns="http://www.w3.org/2000/svg" xmlns:xlink="http://www.w3.org/1999/xlink" x="0px" y="0px"
	 viewBox="0 0 56.7 66.8" style="enable-background:new 0 0 56.7 66.8;" xml:space="preserve">
<style type="text/css">
	.st0{clip-path:url(#SVGID_2_);}
	.st1{clip-path:url(#SVGID_4_);}
</style>
<g>
	<g>
		<defs>
			<rect id="SVGID_3_" width="56.7" height="66.8"/>
		</defs>
		<clipPath id="SVGID_2_">
			<use xlink:href="#SVGID_3_"  style="overflow:visible;"/>
		</clipPath>
		<path class="st0" d="M28.1,35.9h0.4c4-0.1,7.3-1.5,9.7-4.2c5.3-6,4.4-16.2,4.3-17.2C42.2,7.1,38.7,3.6,35.9,2
			c-2.1-1.2-4.6-1.9-7.4-1.9h-0.2c-1.5,0-4.5,0.2-7.4,1.9c-2.9,1.6-6.4,5.2-6.8,12.6c-0.1,1-1,11.2,4.3,17.2
			C20.8,34.4,24,35.8,28.1,35.9L28.1,35.9z M17.7,14.8"/>
		<path class="st0" d="M56.6,52.9L56.6,52.9c0-0.2,0-0.3,0-0.4c-0.1-2.7-0.3-9.1-6.2-11.1c0,0-0.1,0-0.1,0
			c-6.2-1.6-11.4-5.2-11.4-5.2c-0.2-0.1-0.4-0.2-0.6-0.3c-2.6,2-5.8,3-9.6,3.1l-0.5,0l-0.1,0c-3.7-0.1-6.9-1.1-9.6-3.1
			c-0.2,0.1-0.4,0.1-0.6,0.3c-0.1,0-5.2,3.6-11.4,5.2c-0.1,0-0.1,0-0.1,0c-6,2.1-6.2,8.4-6.2,11.1c0,0.1,0,0.2,0,0.3v0
			c0,0.7,0,4.4,0.7,6.2c0.1,0.4,0.4,0.7,0.7,0.9c0.4,0.3,10.3,6.6,26.9,6.6c16.6,0,26.5-6.3,26.9-6.6c0.3-0.2,0.6-0.5,0.7-0.9
			C56.6,57.3,56.6,53.6,56.6,52.9z"/>
	</g>
</g>
</svg>
