<?xml version="1.0" encoding="utf-8"?>
<!-- Generator: Adobe Illustrator 22.1.0, SVG Export Plug-In . SVG Version: 6.00 Build 0)  -->
<svg version="1.1" id="Layer_1" xmlns="http://www.w3.org/2000/svg" xmlns:xlink="http://www.w3.org/1999/xlink" x="0px" y="0px"
	 viewBox="0 0 42.9 27.8" style="enable-background:new 0 0 42.9 27.8;" xml:space="preserve">
<style type="text/css">
	.st0{clip-path:url(#SVGID_2_);}
	.st1{clip-path:url(#SVGID_4_);}
</style>
<g>
	<path d="M20.5,10c0,4,0,8,0,11.9c-3.4,2-6.8,3.9-10.2,5.9c-3.4-2-6.8-3.9-10.2-5.9C0,14.6,0,0,0,0h6.8v6c0,0,2.4-1.3,3.5-2
		C13.7,6,17.1,8,20.5,10z M10.2,12c-1.1,0.7-2.3,1.3-3.4,1.9c0,1.3,0,2.6,0,3.9c1.2,0.7,2.3,1.3,3.4,2c1.1-0.7,2.3-1.3,3.4-2
		c0-1.3,0-2.6,0-3.9C12.5,13.3,11.4,12.7,10.2,12z"/>
	<path d="M32.7,27.8c-3.4-2-6.8-3.9-10.1-5.8c0,0-0.1-0.1-0.1-0.1l0-11.8c0,0,0.1-0.1,0.5-0.3c3.1-1.8,9.8-5.6,9.8-5.6L42.9,10v5
		h-6.8l-0.2-1.1L32.7,12l-3.4,2l0,3.9l3.4,2l3.3-1.9l0.2-1c0,0,4.4,0,6.7,0v5L32.7,27.8z"/>
</g>
</svg>
